<?xml version="1.0" encoding="UTF-8" standalone="no"?>
<!-- Created with Inkscape (http://www.inkscape.org/) -->

<svg
   xmlns:dc="http://purl.org/dc/elements/1.1/"
   xmlns:cc="http://creativecommons.org/ns#"
   xmlns:rdf="http://www.w3.org/1999/02/22-rdf-syntax-ns#"
   xmlns:svg="http://www.w3.org/2000/svg"
   xmlns="http://www.w3.org/2000/svg"
   xmlns:xlink="http://www.w3.org/1999/xlink"
   xmlns:sodipodi="http://sodipodi.sourceforge.net/DTD/sodipodi-0.dtd"
   xmlns:inkscape="http://www.inkscape.org/namespaces/inkscape"
   width="243.72"
   height="317.73999"
   id="svg2"
   sodipodi:version="0.32"
   inkscape:version="0.47 r22583"
   sodipodi:docname="%D0%9F%D1%80%D0%B0%D0%B2%D0%B8%D0%BB%D0%BE_%D0%BF%D1%80%D0%B0%D0%B2%D0%BE%D0%B9_%D1%80%D1%83%D0%BA%D0%B8[1].svg"
   inkscape:output_extension="org.inkscape.output.svg.inkscape"
   version="1.0">
  <defs
     id="defs4">
    <linearGradient
       id="linearGradient4174">
      <stop
         style="stop-color:#0041ff;stop-opacity:1;"
         offset="0"
         id="stop4176" />
      <stop
         id="stop4188"
         offset="0.07336903"
         style="stop-color:#0075ff;stop-opacity:1;" />
      <stop
         id="stop4182"
         offset="0.24390244"
         style="stop-color:#00a9ff;stop-opacity:1;" />
      <stop
         style="stop-color:#0087f3;stop-opacity:1;"
         offset="0.62195122"
         id="stop4184" />
      <stop
         style="stop-color:#0000e7;stop-opacity:1;"
         offset="1"
         id="stop4178" />
    </linearGradient>
    <inkscape:perspective
       sodipodi:type="inkscape:persp3d"
       inkscape:vp_x="0 : 526.18109 : 1"
       inkscape:vp_y="0 : 1000 : 0"
       inkscape:vp_z="744.09448 : 526.18109 : 1"
       inkscape:persp3d-origin="372.04724 : 350.78739 : 1"
       id="perspective29" />
    <linearGradient
       inkscape:collect="always"
       xlink:href="#linearGradient4174"
       id="linearGradient4190"
       x1="117"
       y1="161.23999"
       x2="129"
       y2="161.23999"
       gradientUnits="userSpaceOnUse" />
  </defs>
  <sodipodi:namedview
     id="base"
     pagecolor="#ffffff"
     bordercolor="#666666"
     borderopacity="1.0"
     gridtolerance="10000"
     guidetolerance="10"
     objecttolerance="10"
     inkscape:pageopacity="1"
     inkscape:pageshadow="2"
     inkscape:zoom="1.4142136"
     inkscape:cx="143.88731"
     inkscape:cy="171.91155"
     inkscape:document-units="px"
     inkscape:current-layer="layer1"
     inkscape:window-width="1280"
     inkscape:window-height="785"
     inkscape:window-x="-8"
     inkscape:window-y="-8"
     showgrid="true"
     inkscape:object-paths="true"
     inkscape:object-nodes="true"
     inkscape:snap-bbox="true"
     inkscape:bbox-paths="true"
     inkscape:bbox-nodes="true"
     inkscape:window-maximized="0" />
  <metadata
     id="metadata7">
    <rdf:RDF>
      <cc:Work
         rdf:about="">
        <dc:format>image/svg+xml</dc:format>
        <dc:type
           rdf:resource="http://purl.org/dc/dcmitype/StillImage" />
        <dc:title></dc:title>
      </cc:Work>
      <cc:Work
         rdf:about="">
        <dc:format>image/svg+xml</dc:format>
        <dc:type
           rdf:resource="http://purl.org/dc/dcmitype/StillImage" />
      </cc:Work>
    </rdf:RDF>
  </metadata>
  <g
     inkscape:label="Layer 1"
     inkscape:groupmode="layer"
     id="layer1"
     transform="translate(-85, -726.772)">
    <rect
       style="fill:url(#linearGradient4190);fill-opacity:1.0;stroke:none;stroke-width:1.39999998;stroke-linejoin:round;stroke-miterlimit:4;stroke-dasharray:none;stroke-opacity:1"
       id="rect3203"
       width="12"
       height="269"
       x="117"
       y="26.73999"
       transform="translate(85,726.772)" />
    <path
       style="fill: none; fill-rule: evenodd; stroke: rgb(0, 0, 0); stroke-width: 1px; stroke-linecap: butt; stroke-linejoin: miter; stroke-opacity: 1;"
       d="m 214,753.36218 c 1.53002,88.26808 0.0736,70.73192 0,159"
       id="path2172"
       sodipodi:nodetypes="cc" />
    <path
       style="fill: none; fill-rule: evenodd; stroke: rgb(0, 0, 0); stroke-width: 1px; stroke-linecap: butt; stroke-linejoin: miter; stroke-opacity: 1;"
       d="m 202,753.36218 c 0,9 0,70.09381 0,159"
       id="path2178"
       sodipodi:nodetypes="cc" />
    <path
       style="fill:none;fill-rule:evenodd;stroke:#000000;stroke-width:1px;stroke-linecap:butt;stroke-linejoin:miter;stroke-opacity:1"
       d="M 202,912.36218 L 202,1021.9872 C 206.76291,1023.1812 205.77541,1023.0392 207.6423,1023.0659 C 210.38905,1023.1052 213.875,1022.1122 213.875,1022.1122"
       id="path2406"
       sodipodi:nodetypes="ccsc" />
    <path
       style="fill: none; fill-rule: evenodd; stroke: rgb(0, 0, 0); stroke-width: 1px; stroke-linecap: butt; stroke-linejoin: miter; stroke-opacity: 1;"
       d="M 214,912.36218 L 214,1022.3622"
       id="path2408"
       sodipodi:nodetypes="cc" />
    <path
       style="fill: none; fill-rule: evenodd; stroke: rgb(0, 0, 0); stroke-width: 1px; stroke-linecap: butt; stroke-linejoin: miter; stroke-opacity: 1;"
       d="M 203,753.36218 C 209,755.36218 213,753.36218 213,753.36218 C 208,751.36218 208,751.36218 203,753.36218"
       id="path3220"
       sodipodi:nodetypes="ccc" />
    <path
       sodipodi:type="arc"
       style="fill:none;fill-opacity:1;stroke:rgb(0, 0, 0);stroke-width:2.3;stroke-linejoin:miter;stroke-miterlimit:4;stroke-dasharray:none;stroke-dashoffset:0pt;stroke-opacity:1"
       id="path3250"
       sodipodi:cx="190"
       sodipodi:cy="972.36218"
       sodipodi:rx="40.019855"
       sodipodi:ry="15.78763"
       d="m 194.97006,956.69677 c 21.93125,1.08285 37.48487,8.97431 34.73998,17.62608 -2.74489,8.65176 -22.74885,14.78759 -44.6801,13.70474 -21.93125,-1.08284 -37.48487,-8.9743 -34.73998,-17.62607 2.16727,-6.83116 15.30544,-12.32067 32.46868,-13.56637"
       sodipodi:start="4.8369003"
       sodipodi:end="10.813628"
       transform="translate(19.0199, 1.78763)"
       sodipodi:open="true" />
    <path
       style="fill:rgb(0, 0, 0);fill-opacity:1;fill-rule:evenodd;stroke:#000000;stroke-width:1.4;stroke-linecap:butt;stroke-linejoin:miter;stroke-opacity:1;stroke-miterlimit:4;stroke-dasharray:none"
       d="M 237,985.36218 L 229,990.36218 L 228,985.36218 L 237,985.36218 z"
       id="path3252"
       sodipodi:nodetypes="cccc" />
    <path
       style="font-size:12px;font-style:normal;font-weight:normal;text-anchor:end;fill:#000000;fill-opacity:1;stroke:none;stroke-width:1px;stroke-linecap:butt;stroke-linejoin:miter;stroke-opacity:1;font-family:Bitstream Vera Sans"
       d="M 89.000381,988.22198 L 89.000381,979.63214 L 90.711319,979.63214 L 92.744522,985.71417 C 92.932017,986.28058 93.068736,986.70441 93.154678,986.98566 C 93.252329,986.67316 93.404673,986.21417 93.61171,985.6087 L 95.66835,979.63214 L 97.197647,979.63214 L 97.197647,988.22198 L 96.101944,988.22198 L 96.101944,981.03253 L 93.60585,988.22198 L 92.58046,988.22198 L 90.096085,980.90948 L 90.096085,988.22198 L 89.000381,988.22198 z M 102.96913,987.45441 C 102.5785,987.78644 102.20253,988.02081 101.8412,988.15753 C 101.47987,988.29425 101.09218,988.36261 100.67812,988.36261 C 99.99452,988.36261 99.46913,988.19562 99.101944,987.86163 C 98.734756,987.52765 98.551162,987.10089 98.551163,986.58136 C 98.551162,986.27667 98.620498,985.99835 98.759171,985.7464 C 98.897842,985.49445 99.079482,985.2923 99.304092,985.13995 C 99.5287,984.98761 99.78163,984.87238 100.06288,984.79425 C 100.26991,984.73957 100.58241,984.68683 101.00038,984.63605 C 101.85194,984.53449 102.47889,984.41339 102.88124,984.27277 C 102.88514,984.12824 102.8871,984.03644 102.8871,983.99738 C 102.8871,983.56769 102.78749,983.26496 102.58827,983.08917 C 102.31874,982.8509 101.91835,982.73176 101.3871,982.73175 C 100.891,982.73176 100.52479,982.81867 100.28847,982.99249 C 100.05214,983.16633 99.877333,983.47394 99.764053,983.91534 L 98.732803,983.77472 C 98.826553,983.33332 98.980849,982.97687 99.195694,982.70538 C 99.410536,982.4339 99.721083,982.22492 100.12733,982.07843 C 100.53358,981.93195 101.00428,981.85871 101.53944,981.8587 C 102.07069,981.85871 102.50233,981.92121 102.83437,982.0462 C 103.16639,982.17121 103.41053,982.32844 103.56679,982.51788 C 103.72303,982.70734 103.83241,982.9466 103.89491,983.23566 C 103.93006,983.41535 103.94764,983.73957 103.94765,984.20831 L 103.94765,985.61456 C 103.94764,986.59503 103.9701,987.21515 104.01503,987.47491 C 104.05995,987.73468 104.14881,987.9837 104.28163,988.22198 L 103.18007,988.22198 C 103.07069,988.00324 103.00038,987.74738 102.96913,987.45441 L 102.96913,987.45441 z M 102.88124,985.09894 C 102.49842,985.25519 101.92421,985.388 101.15858,985.49738 C 100.72499,985.55988 100.41835,985.63019 100.23866,985.70831 C 100.05897,985.78644 99.920302,985.9007 99.822647,986.05109 C 99.724989,986.20148 99.676161,986.36847 99.676163,986.55206 C 99.676161,986.83331 99.782606,987.06769 99.995499,987.25519 C 100.20839,987.44269 100.51991,987.53644 100.93007,987.53644 C 101.33632,987.53644 101.69764,987.44757 102.01405,987.26984 C 102.33046,987.0921 102.56288,986.84894 102.71132,986.54034 C 102.8246,986.30206 102.88124,985.9505 102.88124,985.48566 L 102.88124,985.09894 z M 105.59413,981.99933 L 109.17421,981.99933 L 109.17421,982.87238 L 106.64882,982.87238 L 106.64882,988.22198 L 105.59413,988.22198 L 105.59413,981.99933 z M 109.97694,981.99933 L 111.03163,981.99933 L 111.03163,984.58917 L 113.95546,984.58917 L 113.95546,981.99933 L 115.01015,981.99933 L 115.01015,988.22198 L 113.95546,988.22198 L 113.95546,985.46222 L 111.03163,985.46222 L 111.03163,988.22198 L 109.97694,988.22198 L 109.97694,981.99933 z M 116.6039,981.99933 L 117.65858,981.99933 L 117.65858,986.74542 L 120.58241,981.99933 L 121.71913,981.99933 L 121.71913,988.22198 L 120.66444,988.22198 L 120.66444,983.50519 L 117.74062,988.22198 L 116.6039,988.22198 L 116.6039,981.99933 z M 122.73866,981.99933 L 127.7953,981.99933 L 127.7953,982.87238 L 125.7914,982.87238 L 125.7914,988.22198 L 124.74257,988.22198 L 124.74257,982.87238 L 122.73866,982.87238 L 122.73866,981.99933 z M 128.82069,981.99933 L 129.87538,981.99933 L 129.87538,984.58917 L 132.79921,984.58917 L 132.79921,981.99933 L 133.8539,981.99933 L 133.8539,988.22198 L 132.79921,988.22198 L 132.79921,985.46222 L 129.87538,985.46222 L 129.87538,988.22198 L 128.82069,988.22198 L 128.82069,981.99933 z M 135.05507,985.11066 C 135.05507,983.95832 135.37538,983.1048 136.01601,982.55011 C 136.55116,982.08918 137.2035,981.85871 137.97304,981.8587 C 138.8285,981.85871 139.52772,982.13898 140.07069,982.69952 C 140.61366,983.26008 140.88514,984.03449 140.88515,985.02277 C 140.88514,985.82355 140.76502,986.45343 140.5248,986.91241 C 140.28456,987.3714 139.93495,987.72784 139.47597,987.98175 C 139.01698,988.23566 138.516,988.36261 137.97304,988.36261 C 137.10194,988.36261 136.39784,988.08331 135.86073,987.52472 C 135.32362,986.96613 135.05507,986.16144 135.05507,985.11066 L 135.05507,985.11066 z M 136.13905,985.11066 C 136.13905,985.90753 136.31288,986.50421 136.66054,986.9007 C 137.00819,987.29718 137.44569,987.49542 137.97304,987.49542 C 138.49647,987.49542 138.93202,987.2962 139.27968,986.89777 C 139.62733,986.49933 139.80116,985.89191 139.80116,985.0755 C 139.80116,984.30597 139.62635,983.72297 139.27675,983.32648 C 138.92714,982.93 138.49257,982.73176 137.97304,982.73175 C 137.44569,982.73176 137.00819,982.92902 136.66054,983.32355 C 136.31288,983.71808 136.13905,984.31379 136.13905,985.11066 L 136.13905,985.11066 z M 146.3871,986.21808 L 147.47694,986.35284 C 147.30506,986.98956 146.9867,987.4837 146.52187,987.83527 C 146.05702,988.18683 145.46327,988.36261 144.74062,988.36261 C 143.83046,988.36261 143.10878,988.08234 142.57558,987.52179 C 142.04237,986.96124 141.77577,986.17511 141.77577,985.16339 C 141.77577,984.11652 142.0453,983.30402 142.58437,982.72589 C 143.12343,982.14777 143.82264,981.85871 144.68202,981.8587 C 145.51405,981.85871 146.19374,982.14191 146.72108,982.70831 C 147.24842,983.27472 147.51209,984.0716 147.5121,985.09894 C 147.51209,985.16144 147.51014,985.25519 147.50624,985.38019 L 142.86562,985.38019 C 142.90468,986.06378 143.09804,986.58722 143.44569,986.9505 C 143.79335,987.31378 144.22694,987.49542 144.74648,987.49542 C 145.13319,987.49542 145.46327,987.39386 145.73671,987.19073 C 146.01014,986.98761 146.22694,986.66339 146.3871,986.21808 L 146.3871,986.21808 z M 142.92421,984.513 L 146.39882,984.513 C 146.35194,983.98957 146.21913,983.59699 146.00038,983.33527 C 145.66444,982.92902 145.22889,982.7259 144.69374,982.72589 C 144.20936,982.7259 143.80214,982.88801 143.47206,983.21222 C 143.14198,983.53644 142.95936,983.97004 142.92421,984.513 L 142.92421,984.513 z M 121.95351,996.99933 L 126.86366,996.99933 L 126.86366,1003.222 L 125.80898,1003.222 L 125.80898,997.87238 L 123.00819,997.87238 L 123.00819,1003.222 L 121.95351,1003.222 L 121.95351,996.99933 z M 128.04726,1000.1107 C 128.04726,998.95832 128.36757,998.1048 129.00819,997.55011 C 129.54335,997.08918 130.19569,996.85871 130.96523,996.8587 C 131.82069,996.85871 132.51991,997.13898 133.06288,997.69952 C 133.60584,998.26008 133.87733,999.03449 133.87733,1000.0228 C 133.87733,1000.8235 133.75721,1001.4534 133.51698,1001.9124 C 133.27674,1002.3714 132.92713,1002.7278 132.46815,1002.9818 C 132.00917,1003.2357 131.50819,1003.3626 130.96523,1003.3626 C 130.09413,1003.3626 129.39003,1003.0833 128.85292,1002.5247 C 128.31581,1001.9661 128.04726,1001.1614 128.04726,1000.1107 L 128.04726,1000.1107 z M 129.13124,1000.1107 C 129.13124,1000.9075 129.30507,1001.5042 129.65273,1001.9007 C 130.00038,1002.2972 130.43788,1002.4954 130.96523,1002.4954 C 131.48866,1002.4954 131.92421,1002.2962 132.27187,1001.8978 C 132.61952,1001.4993 132.79335,1000.8919 132.79335,1000.0755 C 132.79335,999.30597 132.61854,998.72297 132.26894,998.32648 C 131.91932,997.93 131.48475,997.73176 130.96523,997.73175 C 130.43788,997.73176 130.00038,997.92902 129.65273,998.32355 C 129.30507,998.71808 129.13124,999.31379 129.13124,1000.1107 L 129.13124,1000.1107 z M 135.63515,996.99933 L 140.53358,996.99933 L 140.53358,1003.222 L 139.48476,1003.222 L 139.48476,997.87238 L 136.68983,997.87238 L 136.68983,1000.972 C 136.68983,1001.6946 136.66639,1002.1712 136.61952,1002.4017 C 136.57264,1002.6321 136.44374,1002.8333 136.2328,1003.0052 C 136.02186,1003.1771 135.71718,1003.263 135.31874,1003.263 C 135.07265,1003.263 134.78944,1003.2474 134.46913,1003.2161 L 134.46913,1002.3372 L 134.93202,1002.3372 C 135.15077,1002.3372 135.30702,1002.3148 135.40077,1002.2698 C 135.49452,1002.2249 135.55702,1002.1536 135.58827,1002.056 C 135.61952,1001.9583 135.63515,1001.64 135.63515,1001.1009 L 135.63515,996.99933 z M 146.3871,1001.2181 L 147.47694,1001.3528 C 147.30506,1001.9896 146.9867,1002.4837 146.52187,1002.8353 C 146.05702,1003.1868 145.46327,1003.3626 144.74062,1003.3626 C 143.83046,1003.3626 143.10878,1003.0823 142.57558,1002.5218 C 142.04237,1001.9612 141.77577,1001.1751 141.77577,1000.1634 C 141.77577,999.11652 142.0453,998.30402 142.58437,997.72589 C 143.12343,997.14777 143.82264,996.85871 144.68202,996.8587 C 145.51405,996.85871 146.19374,997.14191 146.72108,997.70831 C 147.24842,998.27472 147.51209,999.0716 147.5121,1000.0989 C 147.51209,1000.1614 147.51014,1000.2552 147.50624,1000.3802 L 142.86562,1000.3802 C 142.90468,1001.0638 143.09804,1001.5872 143.44569,1001.9505 C 143.79335,1002.3138 144.22694,1002.4954 144.74648,1002.4954 C 145.13319,1002.4954 145.46327,1002.3939 145.73671,1002.1907 C 146.01014,1001.9876 146.22694,1001.6634 146.3871,1001.2181 L 146.3871,1001.2181 z M 142.92421,999.513 L 146.39882,999.513 C 146.35194,998.98957 146.21913,998.59699 146.00038,998.33527 C 145.66444,997.92902 145.22889,997.7259 144.69374,997.72589 C 144.20936,997.7259 143.80214,997.88801 143.47206,998.21222 C 143.14198,998.53644 142.95936,998.97004 142.92421,999.513 L 142.92421,999.513 z "
       id="text3254" />
    <path
       style="fill: rgb(255, 0, 0); fill-opacity: 1; fill-rule: evenodd; stroke: rgb(129, 0, 0); stroke-width: 1px; stroke-linecap: butt; stroke-linejoin: miter; stroke-opacity: 1;"
       d="M 210,824.36218 L 210,783.36218 L 212,783.36218 L 208,771.36218 L 204,783.36218 L 206,783.36218 L 206,824.36218 L 210,824.36218 z"
       id="path3260"
       sodipodi:nodetypes="cccccccc" />
    <path
       style="font-size:12px;font-style:normal;font-weight:normal;fill:#000000;fill-opacity:1;stroke:none;stroke-width:1px;stroke-linecap:butt;stroke-linejoin:miter;stroke-opacity:1;font-family:Bitstream Vera Sans"
       d="M 204.53906,1035.6002 L 205.61133,1035.5065 C 205.66211,1035.9362 205.78027,1036.2887 205.96582,1036.5641 C 206.15137,1036.8395 206.43945,1037.0621 206.83008,1037.2321 C 207.2207,1037.402 207.66015,1037.4869 208.14844,1037.4869 C 208.58203,1037.4869 208.96484,1037.4225 209.29688,1037.2936 C 209.6289,1037.1647 209.87597,1036.9879 210.03809,1036.7633 C 210.20019,1036.5387 210.28124,1036.2936 210.28125,1036.028 C 210.28124,1035.7584 210.20312,1035.5231 210.04688,1035.3219 C 209.89062,1035.1207 209.63281,1034.9518 209.27344,1034.8151 C 209.04296,1034.7252 208.5332,1034.5856 207.74414,1034.3961 C 206.95508,1034.2067 206.40234,1034.028 206.08594,1033.86 C 205.67578,1033.6451 205.37012,1033.3785 205.16895,1033.0602 C 204.96777,1032.7418 204.86719,1032.3854 204.86719,1031.9908 C 204.86719,1031.5573 204.99023,1031.152 205.23633,1030.775 C 205.48242,1030.3981 205.8418,1030.1119 206.31445,1029.9166 C 206.78711,1029.7213 207.3125,1029.6237 207.89063,1029.6237 C 208.52734,1029.6237 209.08886,1029.7262 209.5752,1029.9313 C 210.06152,1030.1364 210.43554,1030.4381 210.69727,1030.8365 C 210.95898,1031.235 211.0996,1031.6862 211.11914,1032.1901 L 210.0293,1032.2721 C 209.9707,1031.7291 209.77246,1031.319 209.43457,1031.0416 C 209.09667,1030.7643 208.59765,1030.6256 207.9375,1030.6256 C 207.25,1030.6256 206.74902,1030.7516 206.43457,1031.0035 C 206.12012,1031.2555 205.96289,1031.5592 205.96289,1031.9147 C 205.96289,1032.2233 206.07422,1032.4772 206.29688,1032.6764 C 206.51562,1032.8756 207.08691,1033.0797 208.01074,1033.2887 C 208.93457,1033.4977 209.56835,1033.6803 209.91211,1033.8365 C 210.4121,1034.067 210.78124,1034.359 211.01953,1034.7125 C 211.25781,1035.066 211.37695,1035.4733 211.37695,1035.9342 C 211.37695,1036.3912 211.24609,1036.8219 210.98438,1037.2262 C 210.72265,1037.6305 210.34667,1037.9449 209.85645,1038.1696 C 209.36621,1038.3942 208.81445,1038.5065 208.20117,1038.5065 C 207.42382,1038.5065 206.77246,1038.3932 206.24707,1038.1666 C 205.72168,1037.9401 205.30957,1037.5992 205.01074,1037.1442 C 204.71191,1036.6891 204.55469,1036.1744 204.53906,1035.6002 L 204.53906,1035.6002 z "
       id="text3262" />
    <path
       style="font-size:12px;font-style:normal;font-weight:normal;fill:#000000;fill-opacity:1;stroke:none;stroke-width:1px;stroke-linecap:butt;stroke-linejoin:miter;stroke-opacity:1;font-family:Bitstream Vera Sans"
       d="M 166.00798,1037.8053 L 166.00798,1028.3834 L 156.65642,1028.3834 L 156.65642,1024.4459 L 166.00798,1024.4459 L 166.00798,1015.0944 L 169.99235,1015.0944 L 169.99235,1024.4459 L 179.34392,1024.4459 L 179.34392,1028.3834 L 169.99235,1028.3834 L 169.99235,1037.8053 L 166.00798,1037.8053 z "
       id="text3266" />
    <text
       xml:space="preserve"
       style="font-size:16.32947159px;font-style:normal;font-weight:normal;fill:#000000;fill-opacity:1;stroke:none;stroke-width:1px;stroke-linecap:butt;stroke-linejoin:miter;stroke-opacity:1;font-family:Bitstream Vera Sans"
       x="112.56626"
       y="1031.3652"
       id="text3270"
       transform="scale(1.3607892,0.7348677)"><tspan
         sodipodi:role="line"
         id="tspan3272"
         x="112.56626"
         y="1031.3652"
         style="font-size:65.31788635px">-</tspan></text>
    <path
       style="font-size:12px;font-style:normal;font-weight:normal;fill:#000000;fill-opacity:1;stroke:none;stroke-width:1px;stroke-linecap:butt;stroke-linejoin:miter;stroke-opacity:1;font-family:Bitstream Vera Sans"
       d="M 225.96094,762.862 L 225.96094,754.27216 L 227.09766,754.27216 L 227.09766,757.7995 L 231.5625,757.7995 L 231.5625,754.27216 L 232.69922,754.27216 L 232.69922,762.862 L 231.5625,762.862 L 231.5625,758.81317 L 227.09766,758.81317 L 227.09766,762.862 L 225.96094,762.862 z M 238.52344,762.09442 C 238.13281,762.42645 237.75683,762.66083 237.39551,762.79755 C 237.03418,762.93427 236.64648,763.00262 236.23242,763.00262 C 235.54883,763.00262 235.02344,762.83563 234.65625,762.50165 C 234.28906,762.16766 234.10547,761.74091 234.10547,761.22137 C 234.10547,760.91669 234.1748,760.63837 234.31348,760.38641 C 234.45215,760.13446 234.63379,759.93231 234.8584,759.77997 C 235.08301,759.62763 235.33594,759.51239 235.61719,759.43427 C 235.82422,759.37958 236.13672,759.32685 236.55469,759.27606 C 237.40625,759.1745 238.0332,759.05341 238.43555,758.91278 C 238.43945,758.76825 238.4414,758.67646 238.44141,758.63739 C 238.4414,758.20771 238.34179,757.90497 238.14258,757.72919 C 237.87304,757.49091 237.47265,757.37177 236.94141,757.37177 C 236.44531,757.37177 236.0791,757.45868 235.84277,757.63251 C 235.60644,757.80634 235.43164,758.11396 235.31836,758.55536 L 234.28711,758.41473 C 234.38086,757.97333 234.53516,757.61689 234.75,757.3454 C 234.96484,757.07392 235.27539,756.86494 235.68164,756.71844 C 236.08789,756.57197 236.55859,756.49872 237.09375,756.49872 C 237.625,756.49872 238.05664,756.56122 238.38867,756.68622 C 238.7207,756.81122 238.96484,756.96845 239.12109,757.1579 C 239.27734,757.34736 239.38671,757.58661 239.44922,757.87567 C 239.48437,758.05536 239.50195,758.37958 239.50195,758.84833 L 239.50195,760.25458 C 239.50195,761.23505 239.52441,761.85516 239.56934,762.11493 C 239.61425,762.3747 239.70312,762.62372 239.83594,762.862 L 238.73438,762.862 C 238.625,762.64325 238.55468,762.38739 238.52344,762.09442 L 238.52344,762.09442 z M 238.43555,759.73895 C 238.05273,759.89521 237.47851,760.02802 236.71289,760.13739 C 236.27929,760.19989 235.97265,760.27021 235.79297,760.34833 C 235.61328,760.42646 235.47461,760.54071 235.37695,760.6911 C 235.2793,760.84149 235.23047,761.00849 235.23047,761.19208 C 235.23047,761.47333 235.33691,761.7077 235.5498,761.8952 C 235.76269,762.0827 236.07422,762.17645 236.48438,762.17645 C 236.89062,762.17645 237.25195,762.08759 237.56836,761.90985 C 237.88476,761.73212 238.11718,761.48895 238.26563,761.18036 C 238.3789,760.94208 238.43554,760.59052 238.43555,760.12567 L 238.43555,759.73895 z M 241.14844,756.63934 L 246.05859,756.63934 L 246.05859,762.862 L 245.00391,762.862 L 245.00391,757.51239 L 242.20313,757.51239 L 242.20313,762.862 L 241.14844,762.862 L 241.14844,756.63934 z M 247.63477,765.24677 L 247.63477,756.63934 L 248.5957,756.63934 L 248.5957,757.44794 C 248.82226,757.13154 249.07812,756.89423 249.36328,756.73602 C 249.64843,756.57783 249.99414,756.49872 250.40039,756.49872 C 250.93164,756.49872 251.40039,756.63544 251.80664,756.90887 C 252.21289,757.18232 252.51953,757.56806 252.72656,758.0661 C 252.93359,758.56415 253.0371,759.11005 253.03711,759.7038 C 253.0371,760.34052 252.92285,760.91376 252.69434,761.42352 C 252.46581,761.93329 252.13378,762.32391 251.69824,762.5954 C 251.26269,762.86688 250.80468,763.00262 250.32422,763.00262 C 249.97265,763.00262 249.65722,762.92841 249.37793,762.77997 C 249.09863,762.63153 248.86914,762.44403 248.68945,762.21747 L 248.68945,765.24677 L 247.63477,765.24677 z M 248.58984,759.78583 C 248.58984,760.58661 248.75195,761.17841 249.07617,761.56122 C 249.40039,761.94403 249.79297,762.13544 250.25391,762.13544 C 250.72265,762.13544 251.12402,761.9372 251.45801,761.54071 C 251.79199,761.14423 251.95898,760.52997 251.95898,759.69794 C 251.95898,758.90497 251.79589,758.31122 251.46973,757.91669 C 251.14355,757.52216 250.7539,757.3249 250.30078,757.32489 C 249.85156,757.3249 249.4541,757.53486 249.1084,757.95477 C 248.76269,758.3747 248.58984,758.98505 248.58984,759.78583 L 248.58984,759.78583 z M 258.375,762.09442 C 257.98437,762.42645 257.60839,762.66083 257.24707,762.79755 C 256.88574,762.93427 256.49804,763.00262 256.08398,763.00262 C 255.40039,763.00262 254.875,762.83563 254.50781,762.50165 C 254.14062,762.16766 253.95703,761.74091 253.95703,761.22137 C 253.95703,760.91669 254.02637,760.63837 254.16504,760.38641 C 254.30371,760.13446 254.48535,759.93231 254.70996,759.77997 C 254.93457,759.62763 255.1875,759.51239 255.46875,759.43427 C 255.67578,759.37958 255.98828,759.32685 256.40625,759.27606 C 257.25781,759.1745 257.88476,759.05341 258.28711,758.91278 C 258.29101,758.76825 258.29296,758.67646 258.29297,758.63739 C 258.29296,758.20771 258.19335,757.90497 257.99414,757.72919 C 257.72461,757.49091 257.32421,757.37177 256.79297,757.37177 C 256.29687,757.37177 255.93066,757.45868 255.69434,757.63251 C 255.45801,757.80634 255.2832,758.11396 255.16992,758.55536 L 254.13867,758.41473 C 254.23242,757.97333 254.38672,757.61689 254.60156,757.3454 C 254.8164,757.07392 255.12695,756.86494 255.5332,756.71844 C 255.93945,756.57197 256.41015,756.49872 256.94531,756.49872 C 257.47656,756.49872 257.9082,756.56122 258.24023,756.68622 C 258.57226,756.81122 258.8164,756.96845 258.97266,757.1579 C 259.1289,757.34736 259.23828,757.58661 259.30078,757.87567 C 259.33593,758.05536 259.35351,758.37958 259.35352,758.84833 L 259.35352,760.25458 C 259.35351,761.23505 259.37597,761.85516 259.4209,762.11493 C 259.46581,762.3747 259.55468,762.62372 259.6875,762.862 L 258.58594,762.862 C 258.47656,762.64325 258.40625,762.38739 258.375,762.09442 L 258.375,762.09442 z M 258.28711,759.73895 C 257.90429,759.89521 257.33007,760.02802 256.56445,760.13739 C 256.13086,760.19989 255.82422,760.27021 255.64453,760.34833 C 255.46484,760.42646 255.32617,760.54071 255.22852,760.6911 C 255.13086,760.84149 255.08203,761.00849 255.08203,761.19208 C 255.08203,761.47333 255.18847,761.7077 255.40137,761.8952 C 255.61426,762.0827 255.92578,762.17645 256.33594,762.17645 C 256.74218,762.17645 257.10351,762.08759 257.41992,761.90985 C 257.73632,761.73212 257.96875,761.48895 258.11719,761.18036 C 258.23046,760.94208 258.2871,760.59052 258.28711,760.12567 L 258.28711,759.73895 z M 261,756.63934 L 263.43164,756.63934 C 264.02929,756.63935 264.47363,756.68915 264.76465,756.78876 C 265.05566,756.88837 265.30566,757.07099 265.51465,757.33661 C 265.72363,757.60224 265.82812,757.9206 265.82813,758.29169 C 265.82812,758.58857 265.7666,758.84736 265.64355,759.06805 C 265.5205,759.28876 265.33593,759.47333 265.08984,759.62177 C 265.38281,759.71942 265.62597,759.90204 265.81934,760.16962 C 266.01269,760.4372 266.10937,760.75458 266.10938,761.12177 C 266.07031,761.71161 265.85937,762.14911 265.47656,762.43427 C 265.09375,762.71942 264.53711,762.862 263.80664,762.862 L 261,762.862 L 261,756.63934 z M 262.05469,759.25848 L 263.17969,759.25848 C 263.6289,759.25849 263.9375,759.23505 264.10547,759.18817 C 264.27343,759.1413 264.42382,759.04657 264.55664,758.90399 C 264.68945,758.76142 264.75585,758.59052 264.75586,758.3913 C 264.75585,758.06318 264.63964,757.83466 264.40723,757.70575 C 264.1748,757.57685 263.77734,757.5124 263.21484,757.51239 L 262.05469,757.51239 L 262.05469,759.25848 z M 262.05469,761.99481 L 263.44336,761.99481 C 264.04101,761.99481 264.45117,761.92548 264.67383,761.7868 C 264.89648,761.64813 265.01367,761.40888 265.02539,761.06903 C 265.02539,760.86981 264.96093,760.68524 264.83203,760.51532 C 264.70312,760.3454 264.53515,760.23798 264.32813,760.19305 C 264.12109,760.14814 263.78906,760.12567 263.33203,760.12567 L 262.05469,760.12567 L 262.05469,761.99481 z M 267.88477,756.63934 L 272.7832,756.63934 L 272.7832,762.862 L 271.73438,762.862 L 271.73438,757.51239 L 268.93945,757.51239 L 268.93945,760.612 C 268.93945,761.33466 268.91601,761.81122 268.86914,762.04169 C 268.82226,762.27216 268.69336,762.47333 268.48242,762.6452 C 268.27148,762.81708 267.9668,762.90302 267.56836,762.90302 C 267.32226,762.90302 267.03906,762.88739 266.71875,762.85614 L 266.71875,761.97723 L 267.18164,761.97723 C 267.40039,761.97723 267.55664,761.95477 267.65039,761.90985 C 267.74414,761.86493 267.80664,761.79364 267.83789,761.69598 C 267.86914,761.59833 267.88476,761.27997 267.88477,760.74091 L 267.88477,756.63934 z M 278.63672,760.85809 L 279.72656,760.99286 C 279.55468,761.62958 279.23632,762.12372 278.77148,762.47528 C 278.30664,762.82684 277.71289,763.00262 276.99023,763.00262 C 276.08008,763.00262 275.3584,762.72235 274.8252,762.1618 C 274.29199,761.60126 274.02539,760.81513 274.02539,759.80341 C 274.02539,758.75653 274.29492,757.94404 274.83398,757.36591 C 275.37305,756.78779 276.07226,756.49872 276.93164,756.49872 C 277.76367,756.49872 278.44335,756.78193 278.9707,757.34833 C 279.49804,757.91474 279.76171,758.71161 279.76172,759.73895 C 279.76171,759.80146 279.75976,759.89521 279.75586,760.0202 L 275.11523,760.0202 C 275.1543,760.7038 275.34765,761.22724 275.69531,761.59052 C 276.04297,761.9538 276.47656,762.13544 276.99609,762.13544 C 277.38281,762.13544 277.71289,762.03388 277.98633,761.83075 C 278.25976,761.62763 278.47656,761.30341 278.63672,760.85809 L 278.63672,760.85809 z M 275.17383,759.15302 L 278.64844,759.15302 C 278.60156,758.62958 278.46875,758.237 278.25,757.97528 C 277.91406,757.56904 277.47851,757.36591 276.94336,757.36591 C 276.45898,757.36591 276.05176,757.52802 275.72168,757.85223 C 275.3916,758.17646 275.20898,758.61005 275.17383,759.15302 L 275.17383,759.15302 z M 281.0625,756.63934 L 282.11719,756.63934 L 282.11719,759.22919 L 285.04102,759.22919 L 285.04102,756.63934 L 286.0957,756.63934 L 286.0957,762.862 L 285.04102,762.862 L 285.04102,760.10223 L 282.11719,760.10223 L 282.11719,762.862 L 281.0625,762.862 L 281.0625,756.63934 z M 287.68945,756.63934 L 288.74414,756.63934 L 288.74414,761.38544 L 291.66797,756.63934 L 292.80469,756.63934 L 292.80469,762.862 L 291.75,762.862 L 291.75,758.1452 L 288.82617,762.862 L 287.68945,762.862 L 287.68945,756.63934 z M 298.65234,760.85809 L 299.74219,760.99286 C 299.57031,761.62958 299.25195,762.12372 298.78711,762.47528 C 298.32226,762.82684 297.72851,763.00262 297.00586,763.00262 C 296.0957,763.00262 295.37402,762.72235 294.84082,762.1618 C 294.30762,761.60126 294.04102,760.81513 294.04102,759.80341 C 294.04102,758.75653 294.31055,757.94404 294.84961,757.36591 C 295.38867,756.78779 296.08789,756.49872 296.94727,756.49872 C 297.77929,756.49872 298.45898,756.78193 298.98633,757.34833 C 299.51367,757.91474 299.77734,758.71161 299.77734,759.73895 C 299.77734,759.80146 299.77538,759.89521 299.77148,760.0202 L 295.13086,760.0202 C 295.16992,760.7038 295.36328,761.22724 295.71094,761.59052 C 296.05859,761.9538 296.49218,762.13544 297.01172,762.13544 C 297.39843,762.13544 297.72851,762.03388 298.00195,761.83075 C 298.27539,761.62763 298.49218,761.30341 298.65234,760.85809 L 298.65234,760.85809 z M 295.18945,759.15302 L 298.66406,759.15302 C 298.61718,758.62958 298.48437,758.237 298.26563,757.97528 C 297.92968,757.56904 297.49414,757.36591 296.95898,757.36591 C 296.47461,757.36591 296.06738,757.52802 295.7373,757.85223 C 295.40722,758.17646 295.22461,758.61005 295.18945,759.15302 L 295.18945,759.15302 z M 225.22266,771.63934 L 230.2793,771.63934 L 230.2793,772.51239 L 228.27539,772.51239 L 228.27539,777.862 L 227.22656,777.862 L 227.22656,772.51239 L 225.22266,772.51239 L 225.22266,771.63934 z M 230.90625,774.75067 C 230.90625,773.59833 231.22656,772.74482 231.86719,772.19012 C 232.40234,771.72919 233.05468,771.49872 233.82422,771.49872 C 234.67968,771.49872 235.3789,771.779 235.92188,772.33954 C 236.46484,772.90009 236.73632,773.6745 236.73633,774.66278 C 236.73632,775.46356 236.6162,776.09345 236.37598,776.55243 C 236.13574,777.01141 235.78613,777.36786 235.32715,777.62177 C 234.86816,777.87567 234.36718,778.00262 233.82422,778.00262 C 232.95312,778.00262 232.24902,777.72333 231.71191,777.16473 C 231.1748,776.60614 230.90625,775.80145 230.90625,774.75067 L 230.90625,774.75067 z M 231.99023,774.75067 C 231.99023,775.54755 232.16406,776.14423 232.51172,776.54071 C 232.85937,776.9372 233.29687,777.13544 233.82422,777.13544 C 234.34765,777.13544 234.7832,776.93622 235.13086,776.53778 C 235.47851,776.13934 235.65234,775.53192 235.65234,774.71552 C 235.65234,773.94599 235.47753,773.36298 235.12793,772.96649 C 234.77832,772.57001 234.34375,772.37177 233.82422,772.37177 C 233.29687,772.37177 232.85937,772.56904 232.51172,772.96356 C 232.16406,773.3581 231.99023,773.9538 231.99023,774.75067 L 231.99023,774.75067 z M 237.97266,771.63934 L 239.02734,771.63934 L 239.02734,774.3288 C 239.36328,774.3288 239.59863,774.26435 239.7334,774.13544 C 239.86816,774.00653 240.0664,773.63153 240.32813,773.01044 C 240.53515,772.51825 240.70312,772.19404 240.83203,772.03778 C 240.96093,771.88154 241.10937,771.77607 241.27734,771.72137 C 241.44531,771.66669 241.71484,771.63935 242.08594,771.63934 L 242.29688,771.63934 L 242.29688,772.51239 L 242.00391,772.50653 C 241.72656,772.50654 241.54882,772.54755 241.4707,772.62958 C 241.38867,772.71552 241.26367,772.97138 241.0957,773.39716 C 240.93554,773.80341 240.78906,774.08466 240.65625,774.24091 C 240.52343,774.39716 240.31836,774.53974 240.04102,774.66864 C 240.49414,774.78974 240.93945,775.21161 241.37695,775.93427 L 242.53125,777.862 L 241.37109,777.862 L 240.24609,775.93427 C 240.01562,775.54755 239.81445,775.29267 239.64258,775.16962 C 239.4707,775.04657 239.26562,774.98505 239.02734,774.98505 L 239.02734,777.862 L 237.97266,777.862 L 237.97266,771.63934 z M 247.28906,777.09442 C 246.89843,777.42645 246.52246,777.66083 246.16113,777.79755 C 245.7998,777.93427 245.41211,778.00262 244.99805,778.00262 C 244.31445,778.00262 243.78906,777.83563 243.42188,777.50165 C 243.05469,777.16766 242.87109,776.74091 242.87109,776.22137 C 242.87109,775.91669 242.94043,775.63837 243.0791,775.38641 C 243.21777,775.13446 243.39941,774.93231 243.62402,774.77997 C 243.84863,774.62763 244.10156,774.51239 244.38281,774.43427 C 244.58984,774.37958 244.90234,774.32685 245.32031,774.27606 C 246.17187,774.1745 246.79882,774.05341 247.20117,773.91278 C 247.20507,773.76825 247.20703,773.67646 247.20703,773.63739 C 247.20703,773.20771 247.10742,772.90497 246.9082,772.72919 C 246.63867,772.49091 246.23828,772.37177 245.70703,772.37177 C 245.21093,772.37177 244.84472,772.45868 244.6084,772.63251 C 244.37207,772.80634 244.19726,773.11396 244.08398,773.55536 L 243.05273,773.41473 C 243.14648,772.97333 243.30078,772.61689 243.51563,772.3454 C 243.73047,772.07392 244.04101,771.86494 244.44727,771.71844 C 244.85351,771.57197 245.32422,771.49872 245.85938,771.49872 C 246.39062,771.49872 246.82226,771.56122 247.1543,771.68622 C 247.48632,771.81122 247.73046,771.96845 247.88672,772.1579 C 248.04296,772.34736 248.15234,772.58661 248.21484,772.87567 C 248.24999,773.05536 248.26757,773.37958 248.26758,773.84833 L 248.26758,775.25458 C 248.26757,776.23505 248.29003,776.85516 248.33496,777.11493 C 248.37988,777.3747 248.46874,777.62372 248.60156,777.862 L 247.5,777.862 C 247.39062,777.64325 247.32031,777.38739 247.28906,777.09442 L 247.28906,777.09442 z M 247.20117,774.73895 C 246.81835,774.89521 246.24414,775.02802 245.47852,775.13739 C 245.04492,775.19989 244.73828,775.27021 244.55859,775.34833 C 244.3789,775.42646 244.24023,775.54071 244.14258,775.6911 C 244.04492,775.84149 243.99609,776.00849 243.99609,776.19208 C 243.99609,776.47333 244.10254,776.7077 244.31543,776.8952 C 244.52832,777.0827 244.83984,777.17645 245.25,777.17645 C 245.65625,777.17645 246.01757,777.08759 246.33398,776.90985 C 246.65039,776.73212 246.88281,776.48895 247.03125,776.18036 C 247.14453,775.94208 247.20117,775.59052 247.20117,775.12567 L 247.20117,774.73895 z "
       id="text3274" />
    <path
       style="font-size:12px;font-style:normal;font-weight:normal;fill:#000000;fill-opacity:1;stroke:none;stroke-width:1px;stroke-linecap:butt;stroke-linejoin:miter;stroke-opacity:1;font-family:Bitstream Vera Sans"
       d="M 206.23206,741.362 L 206.23206,732.77216 L 207.39807,732.77216 L 211.90979,739.5163 L 211.90979,732.77216 L 212.99963,732.77216 L 212.99963,741.362 L 211.83362,741.362 L 207.3219,734.612 L 207.3219,741.362 L 206.23206,741.362 z "
       id="text3280" />
    <path
       sodipodi:type="arc"
       style="fill:none;fill-opacity:1;stroke:rgb(0, 0, 0);stroke-width:2.4;stroke-linejoin:miter;stroke-miterlimit:4;stroke-dasharray:none;stroke-dashoffset:0pt;stroke-opacity:1"
       id="path3231"
       sodipodi:cx="190"
       sodipodi:cy="972.36218"
       sodipodi:rx="50.029942"
       sodipodi:ry="20.665409"
       d="m 194.814,951.79266 c 27.50256,1.09821 47.64249,11.19776 44.9838,22.558 -2.6587,11.36023 -27.10923,19.67925 -54.6118,18.58104 -27.50256,-1.0982 -47.64249,-11.19776 -44.9838,-22.55799 2.20962,-9.44137 19.6959,-17.04911 42.40764,-18.45024"
       sodipodi:start="4.8087604"
       sodipodi:end="10.847317"
       transform="translate(19.1846, 1.65543)"
       sodipodi:open="true" />
    <path
       style="fill:#000000;fill-opacity:1;fill-rule:evenodd;stroke:#000000;stroke-width:1.31561685;stroke-linecap:butt;stroke-linejoin:miter;stroke-miterlimit:4;stroke-dasharray:none;stroke-opacity:1"
       d="M 244.34219,989.1698 L 236.00052,993.40437 L 234.95781,989.1698 L 244.34219,989.1698 z "
       id="path3233"
       sodipodi:nodetypes="cccc" />
    <g
       id="g2974"
       transform="translate(44.236746,2.3282498)">
      <g
         id="g2872">
        <path
           style="fill:none;stroke:#000000;stroke-width:1px;stroke-linecap:butt;stroke-linejoin:miter;stroke-opacity:1"
           d="m 257.5702,873.59885 c 0,-0.38344 0.15039,0.75198 0.22559,1.12798 l 0.45119,40.38173"
           id="path2208" />
        <path
           style="fill:none;stroke:#000000;stroke-width:1px;stroke-linecap:butt;stroke-linejoin:miter;stroke-opacity:1"
           d="m 254.63744,869.98931 c 0,-1.24476 2.2706,-1.0225 3.38395,-1.57918 1.06825,-0.53413 2.13832,-0.67679 3.60954,-0.67679 1.6813,0 2.80482,0.75761 4.28633,1.12798 0.1459,0.0365 0.30079,0 0.45119,0 0.93479,0 2.75519,1.6032 3.60954,2.03037 0.99449,0.49725 2.67303,0.2256 3.83514,0.2256 2.10556,0 4.21113,0 6.31669,0 1.59885,0 3.10462,-0.2256 4.73752,-0.2256 1.035,0 2.26403,-0.2256 3.38395,-0.2256 1.35357,0 2.70715,0 4.06073,0 1.63584,0 3.07604,-0.9946 4.51192,-1.35357 0.3008,-0.0752 0.60159,-0.1504 0.90239,-0.2256 1.60749,-0.40187 2.86186,-1.24916 4.51192,-1.57917 1.97192,-0.39439 3.44668,-1.12798 5.63991,-1.12798 1.51798,0 3.16113,-0.2256 4.73752,-0.2256 1.27838,0 2.55676,0 3.83514,0 1.07765,0 2.42209,-0.0415 3.15835,-0.2256 0.65132,-0.16283 0.82725,-0.094 1.35357,-0.22559"
           id="path2210" />
        <path
           style="fill:none;stroke:#000000;stroke-width:1px;stroke-linecap:butt;stroke-linejoin:miter;stroke-opacity:1"
           d="m 258,915.36218 c -1.35242,11.56568 10.90246,2.86481 22.58101,5.61188 3.59543,0.47631 7.59038,1.14294 11.05422,-0.2256 1.0443,-0.52214 2.18463,-0.0535 3.15835,0.67679 1.09136,0.81852 3.23672,1.9061 4.96312,2.48156 0.45119,0.1504 0.90238,0.3008 1.35357,0.45119 1.90826,0.63609 4.55086,0.2256 6.54229,0.2256 2.34681,0 4.49986,-0.45119 6.76789,-0.45119 1.69332,0 3.38443,-0.67679 5.18872,-0.67679 1.20318,0 2.40636,0 3.60954,0"
           id="path2212"
           sodipodi:nodetypes="cccssssssc" />
        <path
           style="fill:none;stroke:#000000;stroke-width:1px;stroke-linecap:butt;stroke-linejoin:miter;stroke-opacity:1"
           d="m 292.76321,870.66609 c 6.94905,13.07811 2.09741,29.35188 -1.35358,42.86329 -0.36378,1.43941 -1.23901,6.05559 -0.40963,7.8328"
           id="path2214"
           sodipodi:nodetypes="ccs" />
        <path
           style="fill:none;stroke:#000000;stroke-width:1px;stroke-linecap:butt;stroke-linejoin:miter;stroke-opacity:1"
           d="m 295,876.36218 c 3.27892,-1.52853 5,-1 7,0"
           id="path2216"
           sodipodi:nodetypes="cc" />
        <path
           style="fill:#b3defd;fill-opacity:1;stroke:none"
           d="m 259.72002,920.30596 c -1.0477,-0.86263 -1.0667,-1.19997 -1.34465,-23.85369 l -0.28195,-22.97869 -1.4993,-1.70769 c -0.8247,-0.93923 -1.3133,-1.8719 -1.0858,-2.0726 0.2274,-0.2007 1.47375,-0.64991 2.7695,-0.99825 3.0205,-0.81203 6.1418,-0.3448 9.2347,1.38233 l 2.4094,1.34547 11.4763,0.004 11.4763,0.004 1.2308,3.5 c 0.96555,2.74574 1.27985,4.81654 1.4585,9.60918 0.2692,7.22061 -0.25295,11.21783 -2.89255,22.1436 -1.08085,4.47373 -2.11375,9.44711 -2.2953,11.05195 -0.26455,2.33852 -0.53345,2.98244 -1.35425,3.24294 -0.5633,0.17878 -4.1223,0.0344 -7.90895,-0.32087 -5.411,-0.50764 -8.0415,-0.52062 -12.28785,-0.0606 -7.091,0.76812 -7.8478,0.74392 -9.1049,-0.29117 z"
           id="path3223" />
        <path
           style="fill:none;stroke:#000000;stroke-width:1px;stroke-linecap:butt;stroke-linejoin:miter;stroke-opacity:1"
           d="m 294,902.36218 c 0,0 9,-1 11.5,3.72222"
           id="path3227"
           sodipodi:nodetypes="cc" />
        <path
           style="fill:#b3defd;fill-opacity:1;stroke:none"
           d="m 301.50149,923.98821 c -2.21174,-0.63079 -4.48153,-1.66974 -6.79225,-3.10901 -0.94726,-0.59002 -1.48146,-0.76308 -2.31024,-0.74844 -0.0486,8.6e-4 -0.34693,0.0564 -0.66292,0.12336 l -0.57452,0.12182 2.3e-4,-1.47246 c 3.3e-4,-2.02802 0.29737,-3.58218 1.96153,-10.26322 l 1.4411,-5.78557 0.59296,-0.11124 c 0.76297,-0.14313 4.09825,0.18926 5.4315,0.5413 1.60902,0.42486 2.9087,1.14698 3.75152,2.0844 0.67647,0.7524 0.81569,0.83338 1.13705,0.6614 0.35712,-0.19113 0.35841,-0.20936 0.052,-0.73765 -1.18339,-2.04036 -5.25196,-3.49906 -9.77684,-3.50527 l -0.97738,-0.001 0.56008,-2.79341 c 1.49553,-7.45906 1.76619,-14.31207 0.77948,-19.73632 -0.19548,-1.07462 -0.40152,-2.12007 -0.45784,-2.32324 -0.0892,-0.32183 0.0302,-0.41128 0.92727,-0.69473 1.38817,-0.4386 2.90794,-0.40927 4.11668,0.0794 0.91565,0.37022 0.97747,0.37432 1.19325,0.0793 0.12514,-0.17116 0.22754,-0.35703 0.22754,-0.41305 0,-0.21218 -2.07345,-0.89665 -3.0052,-0.99205 -0.6855,-0.0702 -1.38497,0.008 -2.37151,0.26604 -0.76958,0.20108 -1.42622,0.33862 -1.45919,0.30565 -0.033,-0.033 -0.25038,-0.60981 -0.48315,-1.28187 -0.23276,-0.67207 -0.63005,-1.68136 -0.88285,-2.24287 l -0.45966,-1.02094 0.48587,-0.18726 c 0.26725,-0.10299 1.63938,-0.56969 3.04917,-1.03712 1.40979,-0.46742 2.98705,-1.0188 3.50502,-1.22529 0.51796,-0.20649 2.01616,-0.65321 3.32933,-0.99271 2.70652,-0.69973 5.72263,-0.96102 11.19687,-0.97002 1.70148,-0.003 3.64245,-0.0844 4.31328,-0.18138 0.6708,-0.097 1.24958,-0.14639 1.28612,-0.10984 0.16176,0.16174 0.5834,3.24604 0.75436,5.51806 0.42858,5.69555 0.0246,12.71891 -1.23478,21.46837 -0.28691,1.99315 -0.5219,3.91192 -0.5222,4.26393 -0.001,1.33196 0.76617,5.05294 2.3217,11.25784 l 1.60891,6.41778 -0.46626,3.74687 c -0.25644,2.0608 -0.46477,3.80656 -0.46298,3.87948 0.002,0.0729 -0.81213,0.13153 -1.80871,0.13026 -0.99658,-0.001 -2.84611,0.15434 -4.11006,0.34583 -4.68736,0.71014 -13.64396,1.09021 -15.20431,0.6452 l 10e-6,10e-6 z"
           id="path3229" />
      </g>
      <g
         id="g2946">
        <path
           style="fill:none;stroke:#000000;stroke-width:1px;stroke-linecap:butt;stroke-linejoin:miter;stroke-opacity:1"
           d="m 257.86342,873.81145 c -8.34824,-8.98633 -5.03573,-10.24092 -16.90919,-23.29001 l -7.96,-6.23597 c -2.89823,-3.94853 -8.3656,-9.00838 -11.53395,-11.71314 C 220.63023,829.95194 215,824.36218 214,824.36218 c 0,0 -0.70269,-0.49766 -1.76335,-0.0557 -1.06066,0.44195 -2.2981,1.14905 -2.2981,2.2981 0,1.14905 0.70711,5.74524 1.23744,6.89429 0.53033,1.14905 2.82401,4.86333 2.82401,4.86333"
           id="path2170"
           sodipodi:nodetypes="ccccc" />
        <path
           style="fill:none;stroke:#000000;stroke-width:1px;stroke-linecap:butt;stroke-linejoin:miter;stroke-opacity:1"
           d="m 214,838.36218 c 2.71315,11.21776 4.54006,6.8277 8.46578,14.42741 4.02773,7.79719 3.99624,10.0164 3.9277,13.75937 0.0517,11.55079 1.24589,11.01103 1.47204,16.57979 1.13794,5.68391 1.37601,10.62606 14.13853,17.31605"
           id="path2180"
           sodipodi:nodetypes="csccc" />
        <path
           style="fill:none;stroke:#000000;stroke-width:1px;stroke-linecap:butt;stroke-linejoin:miter;stroke-opacity:1"
           d="m 228.01709,882.6227 c -4.95489,7.06912 -3.6988,15.18515 -3.02386,23.38225"
           id="path2182"
           sodipodi:nodetypes="cc" />
        <path
           style="fill:none;stroke:#000000;stroke-width:1px;stroke-linecap:butt;stroke-linejoin:miter;stroke-opacity:1"
           d="m 222.82837,856.67913 c 0,0 0,0 0,0 z"
           id="path2184" />
        <path
           style="fill:none;stroke:#000000;stroke-width:1px;stroke-linecap:butt;stroke-linejoin:miter;stroke-opacity:1"
           d="m 214,857.36218 10.48164,-0.57025"
           id="path2186"
           sodipodi:nodetypes="cc" />
        <path
           style="fill:none;stroke:#000000;stroke-width:1px;stroke-linecap:butt;stroke-linejoin:miter;stroke-opacity:1"
           d="m 202,867.36218 c 0.92648,4.62885 6,8 16.76764,7.81584 1.0581,0.26453 1.79584,0.44226 2.48156,1.12798 1.97515,2.40727 1.7508,7.05618 -0.2492,8.05618 -2.91175,1.0423 -6.84855,0.73761 -10,1 -8.47661,-0.0276 -13.1033,-5.53802 -20,-11 -1,-1 -1,-6.99999 -1,-8 0.55987,-6.01758 5.50469,-7.9266 12,-8 l 12,-1"
           id="path2188"
           sodipodi:nodetypes="cccccccc" />
        <path
           style="fill:none;stroke:#000000;stroke-width:1px;stroke-linecap:butt;stroke-linejoin:miter;stroke-opacity:1"
           d="m 191,874.36218 c -3.63468,-0.13435 -4,7 -2.99509,9.05565 5.04743,6.71305 11.4941,10.62631 18.99509,11.94435 4.78649,-0.0145 10.65176,0.43215 14.57917,-2.87854 3.522,-3.25308 -1,-7 -1.57917,-8.12146"
           id="path2190"
           sodipodi:nodetypes="ccccc" />
        <path
           style="fill:none;stroke:#000000;stroke-width:1px;stroke-linecap:butt;stroke-linejoin:miter;stroke-opacity:1"
           d="M 191.92168,887.81141 C 189,893.36218 189.0003,897.7327 193,900.36218 c 7.82469,2.68088 17,6 28,1 2.13841,-1.63262 1.97339,-6.78894 -1,-8"
           id="path2192"
           sodipodi:nodetypes="cccc" />
        <path
           style="fill:none;stroke:#000000;stroke-width:1px;stroke-linecap:butt;stroke-linejoin:miter;stroke-opacity:1"
           d="m 193,900.36218 c -3,3 -2,8 0,9 7.20981,3.60491 20.69708,4.38176 28,0 1,-3 -1.74092,-7 -3,-7"
           id="path2196"
           sodipodi:nodetypes="cscc" />
        <path
           style="fill:none;stroke:#000000;stroke-width:1px;stroke-linecap:butt;stroke-linejoin:miter;stroke-opacity:1"
           d="m 217,911.36218 c -3.27251,-1.0769 -4.29494,-4.48124 3,-7"
           id="path2198"
           sodipodi:nodetypes="cc" />
        <path
           style="fill:none;stroke:#000000;stroke-width:1px;stroke-linecap:butt;stroke-linejoin:miter;stroke-opacity:1"
           d="m 215,895.36218 c -1,-5 0,-6 7,-9"
           id="path2202"
           sodipodi:nodetypes="cc" />
        <path
           style="fill:none;stroke:#000000;stroke-width:1px;stroke-linecap:butt;stroke-linejoin:miter;stroke-opacity:1"
           d="m 215,885.36218 c -0.96772,-6.44837 3,-7 8,-6"
           id="path2204"
           sodipodi:nodetypes="cc" />
        <path
           style="fill:none;stroke:#000000;stroke-width:1px;stroke-linecap:butt;stroke-linejoin:miter;stroke-opacity:1"
           d="m 214,916.36218 c 8.55106,2.78073 24.72162,4 26,4 2,0 18.24698,-2.57264 18.24698,-5.70481"
           id="path2206"
           sodipodi:nodetypes="ccc" />
        <path
           style="fill:none;stroke:#000000;stroke-width:1px;stroke-linecap:butt;stroke-linejoin:miter;stroke-opacity:1"
           d="m 222,895.36218 c -7,2 -6,4 -5,7"
           id="path2404"
           sodipodi:nodetypes="cc" />
        <path
           style="fill:#fdd99b;fill-opacity:1;stroke:none"
           d="m 238.38273,919.82393 c -7.93404,-0.59198 -17.4212,-2.02558 -22.31806,-3.37247 l -1.63518,-0.44975 0,-1.81817 c 0,-1.2122 -0.0677,-1.84072 -0.20313,-1.88586 -0.11173,-0.0372 0.3457,-0.16716 1.01646,-0.28871 1.48173,-0.2685 3.86878,-1.11247 5.22778,-1.84837 l 1.003,-0.54312 0.11932,-1.02803 c 0.072,-0.6203 0.0343,-1.39583 -0.0951,-1.95535 -0.27454,-1.18752 -1.14619,-2.99222 -1.69358,-3.50647 -0.23377,-0.2196 -0.42502,-0.45416 -0.42502,-0.52123 0,-0.0671 0.37786,-0.26235 0.83969,-0.43395 1.25902,-0.46782 1.89269,-1.16619 2.35072,-2.59069 0.60868,-1.89295 0.25359,-4.05008 -0.90437,-5.49394 l -0.52835,-0.65882 0.72494,-0.65495 c 1.97507,-1.78436 1.90935,-4.18961 -0.19085,-6.98473 l -0.68944,-0.91757 0.53655,-0.3263 c 1.32441,-0.80543 1.99415,-4.20956 1.23015,-6.25276 -1.09964,-2.9409 -1.88209,-3.4222 -5.84392,-3.59469 l -2.38648,-0.1039 0,-8.3969 0,-8.39689 3.71231,-0.21944 c 2.04177,-0.12069 4.22516,-0.20024 4.85197,-0.17678 l 1.13966,0.0427 0.59846,1.67938 c 0.88237,2.47606 1.09948,3.88191 1.10127,7.13081 0.002,4.3198 0.29822,8.32521 0.88432,11.97361 0.29057,1.80877 0.52832,3.57577 0.52832,3.92669 0,0.40996 -0.22067,1.01453 -0.61734,1.69135 -1.28234,2.18798 -2.24549,5.18177 -2.56554,7.97453 -0.25267,2.20467 -0.21009,7.26499 0.0893,10.6133 0.14343,1.60424 0.26178,3.05602 0.26299,3.22617 0.001,0.21155 0.1419,0.30936 0.44411,0.30936 0.53786,0 0.53152,0.16615 0.15626,-4.09341 -0.33111,-3.7584 -0.2433,-9.52171 0.17619,-11.56471 0.34113,-1.66128 1.04489,-3.72727 1.72935,-5.07661 l 0.55655,-1.09719 0.42055,1.83062 c 0.80064,3.48541 1.92542,5.70622 4.02892,7.95493 1.91541,2.04766 4.97029,4.29016 8.41715,6.17882 l 1.34285,0.73578 0.19528,-0.42864 c 0.18672,-0.40974 0.13534,-0.46083 -1.16605,-1.15975 -1.96166,-1.05351 -5.03891,-3.13872 -6.58601,-4.46281 -2.37744,-2.03474 -3.97067,-4.38915 -4.82433,-7.12917 -0.52283,-1.67821 -1.17604,-4.93637 -1.17703,-5.87105 -3.9e-4,-0.35966 -0.19926,-1.84309 -0.44197,-3.2965 -0.59625,-3.5708 -0.77128,-5.67425 -0.9567,-11.49957 -0.19927,-6.26071 -0.40924,-7.11298 -3.15743,-12.81631 -1.51056,-3.13487 -2.63077,-4.74766 -4.76171,-6.85548 -1.5897,-1.57246 -1.95082,-2.04034 -2.53063,-3.2788 -0.37197,-0.79453 -0.93041,-2.30699 -1.24099,-3.36103 l -0.56464,-1.91644 0.1305,-6.61304 c 0.0718,-3.63717 0.18722,-6.61304 0.25652,-6.61304 0.0693,0 0.61796,0.44519 1.21923,0.9893 1.47488,1.3347 3.74155,4.07763 4.41729,5.34547 0.41125,0.77161 1.03446,1.46228 2.45598,2.72187 2.41457,2.13953 7.47134,7.2819 8.68449,8.83151 0.68149,0.87049 1.97039,2.0013 4.88188,4.28308 4.22606,3.31204 5.63755,4.73485 8.95795,9.02986 2.10009,2.71653 2.78497,3.76092 5.02371,7.66083 2.19147,3.81759 3.57421,5.85744 5.3703,7.92239 1.00743,1.15823 1.23206,1.53159 1.31608,2.18747 0.0557,0.43497 0.1935,9.68209 0.30616,20.54915 0.19976,19.26531 0.19654,19.76747 -0.12851,20.12667 -0.87307,0.96472 -3.36339,1.94472 -7.58167,2.98355 -4.82503,1.18826 -9.23213,1.82273 -11.49049,1.65422 l 0,0 z"
           id="path2432" />
        <path
           style="fill:#fdd99b;fill-opacity:1;stroke:none"
           d="m 205.01473,911.78853 c -5.17662,-0.35432 -10.8255,-1.87336 -12.26749,-3.29885 -1.22417,-1.21017 -1.49104,-4.28067 -0.53588,-6.16559 0.75652,-1.49292 0.63674,-1.47895 3.88518,-0.45302 6.12783,1.93529 8.67217,2.40339 13.11804,2.41339 3.54087,0.008 4.59662,-0.12113 7.49796,-0.91684 l 1.66437,-0.45644 0.52049,0.58255 0.52052,0.58255 -1.17232,0.50012 c -1.9479,0.83096 -3.57875,2.14934 -3.98205,3.21903 -0.39377,1.04446 -0.19796,1.89386 0.64527,2.79888 l 0.43614,0.4681 -0.85547,0.1829 c -2.42906,0.51933 -6.45315,0.75004 -9.47476,0.54322 l 0,0 z"
           id="path3204" />
        <path
           style="fill:#fdd99b;fill-opacity:1;stroke:none"
           d="m 206.7397,903.39078 c -4.54813,-0.67131 -6.39328,-1.1032 -10.65894,-2.49495 -2.87169,-0.93693 -3.10952,-1.04872 -3.91221,-1.83885 -1.38452,-1.36284 -1.6923,-2.17895 -1.6923,-4.48712 0,-1.58647 0.0777,-2.17241 0.4221,-3.18198 0.35724,-1.04728 0.9866,-2.49652 1.17806,-2.71274 0.0297,-0.0336 0.55692,0.35826 1.1715,0.8708 3.37348,2.8134 7.78484,4.94208 12.43113,5.99859 1.62716,0.37 2.02677,0.39268 5.02387,0.28514 4.51352,-0.16196 6.43807,-0.48472 8.62176,-1.44594 l 0.91771,-0.40396 0.45231,0.41919 c 0.24877,0.23055 0.45231,0.49188 0.45231,0.58072 0,0.0888 -0.59338,0.37796 -1.31863,0.64248 -3.44695,1.25718 -4.46446,2.81899 -3.66435,5.62464 0.18772,0.65828 0.2873,1.23025 0.22127,1.27106 -0.066,0.0408 -0.91096,0.2411 -1.87761,0.4451 -1.70337,0.35946 -6.45721,0.62128 -7.76798,0.42781 l 0,10e-6 z"
           id="path3206" />
        <path
           style="fill:#fdd99b;fill-opacity:1;stroke:none"
           d="m 204.77142,894.39623 c -5.02857,-1.27959 -9.16011,-3.69546 -13.14802,-7.68816 -2.81969,-2.82308 -3.31055,-3.49537 -3.52812,-4.83222 -0.21083,-1.29522 0.0361,-3.6414 0.51873,-4.9288 0.3966,-1.05792 1.35029,-2.08779 1.93339,-2.08779 0.17821,0 1.86586,1.27685 3.75035,2.83743 5.49976,4.55448 8.07073,6.21026 11.23071,7.23292 2.56399,0.82978 4.16805,0.96195 8.83571,0.72807 2.22353,-0.11142 4.39493,-0.28326 4.82535,-0.38188 0.74176,-0.16997 0.80361,-0.15356 1.18688,0.31474 0.2224,0.27172 0.4072,0.55064 0.41069,0.6198 0.004,0.0692 -0.93107,0.6037 -2.07681,1.18783 -2.357,1.20167 -3.41085,2.01852 -3.97449,3.08063 -0.32076,0.60443 -0.38916,1.02555 -0.39165,2.41168 -0.002,0.92366 -0.0826,1.73783 -0.17982,1.80926 -0.0972,0.0714 -1.88709,0.12481 -3.97747,0.11862 -3.37355,-0.01 -3.98218,-0.0574 -5.41543,-0.42214 l 0,10e-6 z"
           id="path3208" />
        <path
           style="fill:#fdd99b;fill-opacity:1;stroke:none"
           d="m 209.21458,884.81439 c -4.82201,-0.61983 -7.79073,-2.30859 -15.55635,-8.84923 -2.34143,-1.97209 -2.4867,-2.13197 -2.69429,-2.96521 -0.36485,-1.46453 -0.61403,-6.14893 -0.39216,-7.37245 0.70147,-3.86832 3.744,-6.16107 8.7433,-6.5886 0.68059,-0.0582 1.4562,-0.13995 1.72357,-0.18165 l 0.48614,-0.0758 0,4.23822 c 0,3.26529 0.0507,4.24143 0.22097,4.25218 0.155,0.01 0.16,0.0389 0.0168,0.0975 -0.14888,0.0609 -0.15544,0.26065 -0.0242,0.73734 0.8037,2.91896 3.62057,5.3139 7.60976,6.46992 2.00734,0.5817 5.00257,0.98976 7.26508,0.98976 1.95521,0 3.29956,0.29224 4.04625,0.87957 0.39018,0.30691 1.19497,1.70798 1.19449,2.07951 -8e-5,0.074 -0.97457,0.13451 -2.16551,0.13451 -1.88205,0 -2.25785,0.0499 -2.87245,0.38156 -1.58112,0.85318 -2.24389,2.02193 -2.35075,4.14542 l -0.0766,1.52177 -1.59773,0.11341 c -1.63069,0.11575 -2.63254,0.11359 -3.57633,-0.008 l 0,0 z"
           id="path3210" />
        <path
           style="fill:#fdd99b;fill-opacity:1;stroke:none"
           d="m 200.61171,913.22724 c -1.30147,-0.57929 -2.17458,-0.98485 -2.58536,-1.20094 -0.56733,-0.29842 -0.9903,-0.55542 -0.94111,-0.57182 0.0242,-0.008 0.30048,0.0545 0.61405,0.13902 0.93217,0.25124 2.49836,0.5828 3.47589,0.73585 l 0.34251,0.0536 0,0.61265 c 0,0.33696 -0.0149,0.61101 -0.0331,0.609 -0.0182,-0.002 -0.41101,-0.17184 -0.87283,-0.3774 l 0,1e-5 z"
           id="path3212" />
        <path
           style="fill:#ffd7c6;fill-opacity:1;stroke:none"
           d="m 215.99017,910.33082 c -0.93191,-0.67542 -1.19501,-1.36846 -0.8315,-2.19023 0.41879,-0.94676 1.44074,-1.77536 3.1897,-2.58621 1.55582,-0.72131 1.5405,-0.71989 1.78049,-0.16435 0.37197,0.86103 0.55068,1.71237 0.55218,2.6304 l 0.001,0.90468 -0.53125,0.3379 c -0.5623,0.35765 -2.71574,1.24597 -3.30612,1.36383 -0.26132,0.0522 -0.4782,-0.0229 -0.85499,-0.29602 l 0,0 z"
           id="path3214" />
        <path
           style="fill:#ffd7c6;fill-opacity:1;stroke:none"
           d="m 217.12547,901.17179 c -0.70996,-2.24744 -0.29018,-3.13993 1.99456,-4.2405 1.40156,-0.67514 2.39548,-0.97006 2.5954,-0.77014 0.1044,0.10439 0.1546,0.60924 0.1546,1.5546 0,1.19653 -0.0418,1.4906 -0.28735,2.02344 -0.49967,1.08407 -0.80439,1.29418 -3.00386,2.07122 -0.57266,0.20231 -1.0624,0.36784 -1.08831,0.36784 -0.0259,0 -0.19018,-0.45291 -0.36504,-1.00645 l 0,-10e-6 z"
           id="path3216" />
        <path
           style="fill:#ffd7c6;fill-opacity:1;stroke:none"
           d="m 215.26406,894.0925 c -0.0433,-0.26221 -0.0788,-0.89863 -0.0789,-1.41425 -2.5e-4,-1.50651 0.56389,-2.42005 2.15426,-3.48854 0.65917,-0.44285 3.82032,-2.01122 4.05405,-2.01137 0.0816,-5e-5 0.33465,0.3782 0.56228,0.84055 0.50796,1.03183 0.57132,2.15325 0.16791,2.97186 -0.7167,1.45429 -3.65002,3.09183 -6.2672,3.49867 l -0.51359,0.0798 -0.0788,-0.47676 z"
           id="path3218" />
        <path
           style="fill:#b3defd;fill-opacity:1;stroke:none"
           d="m 215.35528,884.35147 c -0.12031,-0.47934 0.0379,-2.01711 0.2806,-2.72728 0.42058,-1.2307 1.5666,-1.97813 3.2954,-2.1492 0.73618,-0.0729 2.95364,0.11384 3.10048,0.26103 0.1628,0.16319 0.0651,1.87206 -0.1491,2.60675 -0.3174,1.08888 -0.79432,1.53155 -1.96924,1.82782 -1.00861,0.25434 -2.96025,0.50766 -3.91108,0.50766 -0.50505,0 -0.57376,-0.0347 -0.64706,-0.32678 l 0,0 z"
           id="path3221" />
        <path
           style="fill:#ffd7c6;fill-opacity:1;stroke:none"
           d="m 215.37003,883.19738 c 0.14823,-2.82401 1.28467,-3.76363 4.51516,-3.73315 2.29783,0.0217 2.42714,0.11096 2.2644,1.56332 -0.13009,1.16063 -0.57836,2.34521 -1.02797,2.7163 -0.4832,0.39882 -2.07808,0.74153 -3.99561,0.85859 l -1.83562,0.11206 0.0796,-1.51712 z"
           id="path3235" />
      </g>
    </g>
    <path
       style="fill: rgb(102, 153, 204); fill-opacity: 1; stroke: none; stroke-width: 1; stroke-linejoin: miter; stroke-miterlimit: 4; stroke-dasharray: none; stroke-dashoffset: 0pt; stroke-opacity: 1;"
       d="M 206.41056,753.63834 C 206.26472,753.60121 205.82733,753.51845 205.43857,753.45442 L 204.73175,753.33802 L 205.229,753.07748 C 205.50249,752.93419 206.23819,752.70983 206.8639,752.57892 C 208.07832,752.32483 209.4785,752.49752 210.8041,753.06489 C 211.31406,753.28315 211.35113,753.33738 211.06927,753.45275 C 210.7178,753.59661 206.8516,753.75063 206.41056,753.63834 z"
       id="path3265" />
    <path
       id="path3784"
       transform="translate(85,726.772)"
       style="color:#000000;fill:none;stroke:#000000;stroke-width:1;stroke-linecap:butt;stroke-linejoin:miter;stroke-miterlimit:4;stroke-opacity:1;stroke-dasharray:none;stroke-dashoffset:0;marker:none;visibility:visible;display:inline;overflow:visible;enable-background:accumulate"
       d="m 154.23675,185.91843 c 2.33333,1.66667 0,1 7,4 l 12,2"
       sodipodi:nodetypes="ccc" />
    <path
       style="fill:#fdd99b;fill-opacity:1;fill-rule:nonzero;stroke:none"
       d="m 167.39134,190.40641 c -3.44752,-0.58112 -5.92861,-0.9622 -6.12016,-1.04081 l -0.50403,-0.23597 -0.0131,-0.48588 c 0.0135,-0.29728 -0.013,-0.69059 3.8e-4,-0.70455 0.0135,-0.0139 0.49765,0.10934 0.97056,0.17134 1.86677,0.24452 2.80237,0.29742 5.2617,0.2975 1.92116,7e-5 2.7833,-0.0303 3.67427,-0.12927 1.05242,-0.11695 2.36419,-0.3422 2.78574,-0.43635 0.25236,-0.0564 0.21908,0.36987 0.21953,2.06156 3.7e-4,1.39338 0.11792,1.58169 0,1.57221 -0.07,-0.006 -2.99601,-0.51705 -6.27496,-1.06974 l 6e-5,-4e-5 z"
       id="path3786"
       transform="translate(85,726.772)"
       sodipodi:nodetypes="ccccssssssscc" />
    <path
       style="fill:#fdd99b;fill-opacity:1;fill-rule:nonzero;stroke:none"
       d="m 172.4436,149.91703 c -3.97169,-0.5233 -6.98988,-1.76438 -8.77375,-3.60776 -0.28366,-0.29312 -0.6364,-0.7021 -0.78388,-0.90884 -0.33785,-0.47361 -0.877,-1.61967 -0.98722,-2.0985 -0.1249,-0.5426 -0.51585,-0.47323 -0.84685,-0.38183 -0.58541,0.16163 -0.29036,-4.64891 -0.24438,-4.89601 l -0.046,-3.68639 6.38909,-0.37206 c 3.49147,-0.2894 6.50698,-0.55644 6.57701,-0.55522 0.12051,0.002 0.0258,0.47778 0.0258,8.32785 l 0.0136,8.33986 -0.30013,-0.0206 c -0.15006,-0.004 -0.60298,-0.0846 -1.02315,-0.13998 l -1.7e-4,-4.8e-4 z"
       id="path3788"
       transform="translate(85,726.772)"
       sodipodi:nodetypes="csssscccsccccc" />
    <path
       style="fill:#fdd99b;fill-opacity:1;fill-rule:nonzero;stroke:none"
       d="m 173.03087,112.55943 c -1.35705,-2.24632 -1.98799,-3.36642 -2.20092,-3.90723 -0.32524,-0.82606 -0.82402,-3.44168 -1.05699,-5.54295 -0.1163,-1.04894 -0.0928,-1.23987 0.20129,-1.63638 0.21972,-0.29622 0.59061,-0.5703 1.17736,-0.87002 0.98072,-0.50098 1.29319,-0.50767 2.24489,-0.0481 0.12153,0.0587 0.34639,0.20003 0.49967,0.31409 0.22212,0.16528 0.2919,0.20827 0.27346,0.28175 -0.0743,0.29625 -0.216,4.76976 -0.29476,9.37879 -0.0487,2.85068 0.003,3.35789 -0.0663,3.35789 -0.021,0 -0.41429,-0.72629 -0.77773,-1.32789 l 0,5e-5 z"
       id="path3791"
       transform="translate(85,726.772)"
       sodipodi:nodetypes="cssssssssscc" />
  </g>
</svg>
